/* XPM */
static char *z180_64x64_black[] = {
/* columns rows colors chars-per-pixel */
"64 64 5 1 ",
"  c #000000",
". c #010000",
"X c #000100",
"o c #010100",
"O c None",
/* pixels */
"OOOOOOOOOOOOOOOOOOOOOOOOOOOOOOOOOOOOOOOOOOOOOOOOOOOOOOOOOOOOOOOO",
"OOOOOOOOOOOOOOOOOOOOOOOOOOOOOOOOOOOOOOOOOOOOOOOOOOOOOOOOOOOOOOOO",
"OOOOOOOOOOOOOOOOOOOOOOOOOOOOOOOOOOOOOOoo         o oOOOOOOOOOOOO",
"OOOOOOOOOOOOOOOOOOOOOOOOOOOOOOOOooooo                   OOOOOOOO",
"OOOOOOOOOOOOOOOOOOOOOOOOOOOOooooo                        OOOOOOO",
"OOOOOOOOOOOOOOOOOOOOOOOOOOo oooooo                       OOOOOOO",
"OOOOOOOOOOOOOOOOOOOOOOOo   o  o                         oOOOOOOO",
"OOOOOOOOOOOOOOOOOOOOOoo o o          oOOOOOOOOO          OOOOOOO",
"OOOOOOOOOOOOOOOOOOOo            OOOOOOOOOOOOOOOOOOOOO    OOOOOOO",
"OOOOOOOOOOOOOOOOOo   oo      OOOOOOOOOOOOOOOOOOOOOOOOOOoOOOOOOOO",
"OOOOOOOOOOOOOOOOo        OOOOOOOOOOOOOOOOOOOO   oOOOOOOOOOOOOOOO",
"OOOOOOOOOOOOOO         OOOOOOOOOOOOOOOOOOOOOO   o   OOOOOOOOOOOO",
"OOOOOOOOOOOOO    o ooOOOOOOOOOOOOOOOOOO oOOOO   o     oOOOOOOOOO",
"OOOOOOOOOOOO     oOOOOOOOOOOOOOOOOOOOO     OO           OOOOOOOO",
"OOOOOOOOOO      oOOOOOOOOOOO    oOOOO       O            oOOOOOO",
"OOOOOOOOO      OOOOOOOOOOOO      OOO   OOO  OOOOOOo       oOOOOO",
"OOOOOOOOoo   oOOOOOOOOo OO   OO  oOO   OOO  oOOOOOOOO       OOOO",
"OOOOOOO     OOOOOOOOOo  OO   OOO oOO  OOOOo  OOOOOOOOOO   o oOOO",
"OOOOOOO    OOOOOOOOOOo  OO  oOOO oOO oOOOOO  OOOOOOOOOOOo    oOO",
"OOOOOO    OOOOOOOOOO    OO  oOO   OO  OOOOO  OOOOOOOOOOOOO  o OO",
"OOOOO   oOOOOO   oOO   oOO ooOO  OOO  OOOOO oOOOOOOOOOOOOOO   oO",
"OOOO    OOOo      OOO   OOO     oOOO oOOOOO  OOOOOOOOOOOOOOO  oO",
"OOOO   OOOo     o OOOo  OOOO      OO  OOOOO  OOOOOOOOOOOOOOO   o",
"OOO   OOOo   o   OOOO   OOO  oO    Oo oOOO  oOOOOOOOOOOOOOOOO  o",
"OO   OOOO  OOO  oOOOO   OO   OOO   Oo  OOO  OOOOOOOOOOOOOOOOO   ",
"OO   OOOOOOOO  oOOOOOo  OO  oOOOO oOO   o   OOOOOOOOOOOOOOOOOO  ",
"O   OOOOOOOOO  oOOOOO   OO  oOOOO  OOO  o  OOOOOOOOOOOOOOOOOOO o",
"O   OOOOOOOOo  OOOOOOo  OO   OOOo  OOOOOOOOOOOO   OOOOOOOOOOOOo ",
"O  OOOOOOOOO  OOOOOOO   OO   OOO   OOOOOOOOOOOO   OOOOOOOOOOOOoo",
"   OOOOOOOO   OOOOOOOo  oOO   oo  OOOOOOOOOOOOOo  OOOOOOOOOOOOOo",
"   OOOOOOOO  OOOo OOO   oOOO    oOOOOOOOOOOOOOOo  OOOo oOOOOOOOo",
"  OOOOOOOO   O   oOOOo OOOOOOOOOOOOOOOO  OOOOOO  oOO     OOOOOO ",
"  OOOOOOOO  o     OOOOOOOOOOOOOOOOOOOOO  oOOOOO  OO   O  OOOOOOo",
" oOOOOOOO        OOOOOOOOOOOOOOOOOOooOO oOOOO    OO  OO  OOOOOO ",
"o OOOOOOO     OOOOOOOOOOOOOOOOOOOOo ooOoOOOO     OO oO  OOOOOOo ",
" oOOOOOOOOoOOOOOOOOOoOOOOOOOOOOOO    OOo OO   O  O     oOOOOOO o",
"  OOOOOOOOOOOOOOOOOo oOo  OOOOOOo   OOO  OO  OO  O    OOOOOOOO o",
" oOOOOOOOOOOOOOOOOO   O   Oo  OO   OOOO  Oo  OO  Oo  OOO  OOO oo",
"  OOOOOOOOOOOOOOOOOOOOO   o    O  oOOOO  Oo  OO  OO  OO   OOO  o",
"  oOOOOOOOOOOOOOOOO ooO    o   O   OOOO  O   O   OO      OOOO oO",
"  oOOOOOOOOOOOOOOOO  oOo  oO   OO   OOO  Oo OO   OOO   oOOOOoooO",
"o  OOOOOOOOOOOOOOOOo oOoo OO   OOO   OO  O       OOOOOOOOOOoo OO",
"O   OOOOOOOOOOOOOOO  oOo  OO   OOOO  OO oO    o  OOOOOOOOOOo oOO",
"O   OOOOOOOOOOOOOOO  oO   OOO  OOO   OO  OO  OO  OOOOOOOOOo  OOO",
"Oo   OOOOOOOOOOOOOO  OOo oOOO  OOO   OO  OOOOOO  OOOOOOOO   oOOO",
"OO   oOOOOOOOOOOOOOo OOO  OOO  OO   OOO  OOOOOOOOOOOOOOOo   OOOO",
"OO    OOOOOOOOOOOOO  OOO  OOOooO o oOOOOOOOOOOOOOOOOOOO    OOOOO",
"OOO    OOOOOOOOOOOOo OOO  OOOo OO oOOOOOOOOOOOOOOOOOOO    oOOOOO",
"OOOO   oOOOOOOOOOOO  OOOOOOOOO OOOOOOOOOOOOOOOOOOOOOO    oOOOOOO",
"OOOOO    oOOOOOOOOOOOOOOOOOOOOOOOOOOOOOOOOOOOOOOOOOoo    OOOOOOO",
"OOOOOo   ooOOOOOOOOOOOOOOOOOOOOOOOOOOOOOOOOOOOOOOOoo   oOOOOOOOO",
"OOOOOOo     OOOOOOOOOOOOOOOOOOOOOOOOOOOOOOOOOOOOo     OOOOOOOOOO",
"OOOOOOOO     ooOOOOOOOOOOOOOOOOOOOOOOOOOOOOOOO o     OOOOOOOOOOO",
"OOOOOOOOO       oOOOOOOOOOOOOOOOOOOOOOOOOOOoo  o  oOOOOOOOOOOOOO",
"OOOOOOOOOOo          OOOOOOOOOOOOOOOOOOOoo       OOOOOOOOOOOOOOO",
"OOOOOOOOOOOO            ooOOOOOOOOoo     o      OOOOOOOOOOOOOOOO",
"OOOOOOOOOOOOOO   o           oooo o          OOOOOOOOOOOOOOOOOOO",
"OOOOOOOOOOOOOOOOO                        o OOOOOOOOOOOOOOOOOOOOO",
"OOOOOOOOOOOOOOOOOOOO                   OOOOOOOOOOOOOOOOOOOOOOOOO",
"OOOOOOOOOOOOOOOOOOOOOOOOOOooo  oOOOOOOOOOOOOOOOOOOOOOOOOOOOOOOOO",
"OOOOOOOOOOOOOOOOOOOOOOOOOOOOOOOOOOOOOOOOOOOOOOOOOOOOOOOOOOOOOOOO",
"OOOOOOOOOOOOOOOOOOOOOOOOOOOOOOOOOOOOOOOOOOOOOOOOOOOOOOOOOOOOOOOO",
"OOOOOOOOOOOOOOOOOOOOOOOOOOOOOOOOOOOOOOOOOOOOOOOOOOOOOOOOOOOOOOOO",
"OOOOOOOOOOOOOOOOOOOOOOOOOOOOOOOOOOOOOOOOOOOOOOOOOOOOOOOOOOOOOOOO"
};
