/* XPM */
static char *z180_64x64_white[] = {
/* columns rows colors chars-per-pixel */
"64 64 5 1 ",
"  c #FEFEFF",
". c #FFFEFF",
"X c #FEFFFF",
"o c #FFFFFF",
"O c None",
/* pixels */
"OOOOOOOOOOOOOOOOOOOOOOOOOOOOOOOOOOOOOOOOOOOOOOOOOOOOOOOOOOOOOOOO",
"OOOOOOOOOOOOOOOOOOOOOOOOOOOOOOOOOOOOOOOOOOOOOOOOOOOOOOOOOOOOOOOO",
"OOOOOOOOOOOOOOOOOOOOOOOOOOOOOOOOOOOOOOooooooooooooooOOOOOOOOOOOO",
"OOOOOOOOOOOOOOOOOOOOOOOOOOOOOOOOooooooooooooooooooooooooOOOOOOOO",
"OOOOOOOOOOOOOOOOOOOOOOOOOOOOoooooooooooooooooooooooooooooOOOOOOO",
"OOOOOOOOOOOOOOOOOOOOOOOOOOoooooooooooooooooooooooooooooooOOOOOOO",
"OOOOOOOOOOOOOOOOOOOOOOOooooooooooooooooooooooooooooooooooOOOOOOO",
"OOOOOOOOOOOOOOOOOOOOOoooooooooooooooooOOOOOOOOOooooooooooOOOOOOO",
"OOOOOOOOOOOOOOOOOOOoooooooooooooOOOOOOOOOOOOOOOOOOOOOooooOOOOOOO",
"OOOOOOOOOOOOOOOOOooooooooooooOOOOOOOOOOOOOOOOOOOOOOOOOOoOOOOOOOO",
"OOOOOOOOOOOOOOOOoooooooooOOOOOOOOOOOOOOOOOOOOooooOOOOOOOOOOOOOOO",
"OOOOOOOOOOOOOOoooooooooOOOOOOOOOOOOOOOOOOOOOOoooooooOOOOOOOOOOOO",
"OOOOOOOOOOOOOooooooooOOOOOOOOOOOOOOOOOOooOOOOooooooooooOOOOOOOOO",
"OOOOOOOOOOOOooooooOOOOOOOOOOOOOOOOOOOOoooooOOoooooooooooOOOOOOOO",
"OOOOOOOOOOoooooooOOOOOOOOOOOoooooOOOOoooooooOoooooooooooooOOOOOO",
"OOOOOOOOOooooooOOOOOOOOOOOOooooooOOOoooOOOooOOOOOOoooooooooOOOOO",
"OOOOOOOOooooooOOOOOOOOooOOoooOOoooOOoooOOOoooOOOOOOOOoooooooOOOO",
"OOOOOOOoooooOOOOOOOOOoooOOoooOOOooOOooOOOOoooOOOOOOOOOOooooooOOO",
"OOOOOOOooooOOOOOOOOOOoooOOoooOOOooOOooOOOOOooOOOOOOOOOOOooooooOO",
"OOOOOOooooOOOOOOOOOOooooOOoooOOoooOOooOOOOOooOOOOOOOOOOOOOooooOO",
"OOOOOooooOOOOOooooOOooooOOoooOOooOOOooOOOOOooOOOOOOOOOOOOOOooooO",
"OOOOooooOOOoooooooOOOoooOOOooooooOOOooOOOOOooOOOOOOOOOOOOOOOoooO",
"OOOOoooOOOooooooooOOOoooOOOOooooooOOooOOOOOooOOOOOOOOOOOOOOOoooo",
"OOOoooOOOooooooooOOOOoooOOOoooOooooOoooOOOoooOOOOOOOOOOOOOOOOooo",
"OOoooOOOOooOOOoooOOOOoooOOoooOOOoooOoooOOOooOOOOOOOOOOOOOOOOOooo",
"OOoooOOOOOOOOoooOOOOOoooOOoooOOOOooOOoooooooOOOOOOOOOOOOOOOOOOoo",
"OoooOOOOOOOOOoooOOOOOoooOOoooOOOOooOOOoooooOOOOOOOOOOOOOOOOOOOoo",
"OoooOOOOOOOOoooOOOOOOoooOOoooOOOoooOOOOOOOOOOOOoooOOOOOOOOOOOOoo",
"OooOOOOOOOOOooOOOOOOOoooOOoooOOOoooOOOOOOOOOOOOoooOOOOOOOOOOOOoo",
"oooOOOOOOOOoooOOOOOOOooooOOoooooooOOOOOOOOOOOOOoooOOOOOOOOOOOOOo",
"oooOOOOOOOOooOOOooOOOooooOOOoooooOOOOOOOOOOOOOOoooOOOoooOOOOOOOo",
"ooOOOOOOOOoooOooooOOOooOOOOOOOOOOOOOOOOooOOOOOOoooOOoooooOOOOOOo",
"ooOOOOOOOOooooooooOOOOOOOOOOOOOOOOOOOOOoooOOOOOooOOoooOooOOOOOOo",
"ooOOOOOOOooooooooOOOOOOOOOOOOOOOOOOooOOooOOOOooooOOooOOooOOOOOOo",
"ooOOOOOOOoooooOOOOOOOOOOOOOOOOOOOOooooOoOOOOoooooOOooOooOOOOOOoo",
"ooOOOOOOOOoOOOOOOOOOoOOOOOOOOOOOOooooOOooOOoooOooOooooooOOOOOOoo",
"ooOOOOOOOOOOOOOOOOOoooOoooOOOOOOooooOOOooOOooOOooOooooOOOOOOOOoo",
"ooOOOOOOOOOOOOOOOOOoooOoooOoooOOoooOOOOooOoooOOooOoooOOOooOOOooo",
"ooOOOOOOOOOOOOOOOOOOOOOooooooooOoooOOOOooOoooOOooOOooOOoooOOOooo",
"oooOOOOOOOOOOOOOOOOoooOooooooooOoooOOOOooOoooOoooOOooooooOOOOooO",
"oooOOOOOOOOOOOOOOOOoooOooooOoooOOoooOOOooOooOOoooOOOooooOOOOoooO",
"oooOOOOOOOOOOOOOOOOoooOoooOOoooOOOoooOOooOoooooooOOOOOOOOOOoooOO",
"OoooOOOOOOOOOOOOOOOoooOoooOOoooOOOOooOOooOoooooooOOOOOOOOOOoooOO",
"OoooOOOOOOOOOOOOOOOoooOoooOOOooOOOoooOOooOOooOOooOOOOOOOOOoooOOO",
"OooooOOOOOOOOOOOOOOooOOoooOOOooOOOoooOOooOOOOOOooOOOOOOOOooooOOO",
"OOooooOOOOOOOOOOOOOooOOOooOOOooOOoooOOOooOOOOOOOOOOOOOOOooooOOOO",
"OOooooOOOOOOOOOOOOOooOOOooOOOooOooooOOOOOOOOOOOOOOOOOOOooooOOOOO",
"OOOooooOOOOOOOOOOOOooOOOooOOOooOOooOOOOOOOOOOOOOOOOOOOoooooOOOOO",
"OOOOooooOOOOOOOOOOOooOOOOOOOOOoOOOOOOOOOOOOOOOOOOOOOOoooooOOOOOO",
"OOOOOoooooOOOOOOOOOOOOOOOOOOOOOOOOOOOOOOOOOOOOOOOOOooooooOOOOOOO",
"OOOOOooooooOOOOOOOOOOOOOOOOOOOOOOOOOOOOOOOOOOOOOOOooooooOOOOOOOO",
"OOOOOOooooooOOOOOOOOOOOOOOOOOOOOOOOOOOOOOOOOOOOOooooooOOOOOOOOOO",
"OOOOOOOOoooooooOOOOOOOOOOOOOOOOOOOOOOOOOOOOOOOoooooooOOOOOOOOOOO",
"OOOOOOOOOooooooooOOOOOOOOOOOOOOOOOOOOOOOOOOooooooooOOOOOOOOOOOOO",
"OOOOOOOOOOoooooooooooOOOOOOOOOOOOOOOOOOOoooooooooOOOOOOOOOOOOOOO",
"OOOOOOOOOOOOooooooooooooooOOOOOOOOooooooooooooooOOOOOOOOOOOOOOOO",
"OOOOOOOOOOOOOOoooooooooooooooooooooooooooooooOOOOOOOOOOOOOOOOOOO",
"OOOOOOOOOOOOOOOOOooooooooooooooooooooooooooOOOOOOOOOOOOOOOOOOOOO",
"OOOOOOOOOOOOOOOOOOOOoooooooooooooooooooOOOOOOOOOOOOOOOOOOOOOOOOO",
"OOOOOOOOOOOOOOOOOOOOOOOOOOooooooOOOOOOOOOOOOOOOOOOOOOOOOOOOOOOOO",
"OOOOOOOOOOOOOOOOOOOOOOOOOOOOOOOOOOOOOOOOOOOOOOOOOOOOOOOOOOOOOOOO",
"OOOOOOOOOOOOOOOOOOOOOOOOOOOOOOOOOOOOOOOOOOOOOOOOOOOOOOOOOOOOOOOO",
"OOOOOOOOOOOOOOOOOOOOOOOOOOOOOOOOOOOOOOOOOOOOOOOOOOOOOOOOOOOOOOOO",
"OOOOOOOOOOOOOOOOOOOOOOOOOOOOOOOOOOOOOOOOOOOOOOOOOOOOOOOOOOOOOOOO"
};
