/* XPM */
static char *z80inside[] = {
/* columns rows colors chars-per-pixel */
"64 57 256 2 ",
"   c black",
".  c #010101",
"X  c #020202",
"o  c gray1",
"O  c #040404",
"+  c gray2",
"@  c #060606",
"#  c #070707",
"$  c gray3",
"%  c #090909",
"&  c gray4",
"*  c #0B0B0B",
"=  c #0C0C0C",
"-  c gray5",
";  c #0E0E0E",
":  c gray6",
">  c #101010",
",  c #111111",
"<  c gray7",
"1  c #131313",
"2  c gray8",
"3  c #151515",
"4  c #161616",
"5  c gray9",
"6  c #181818",
"7  c #191919",
"8  c gray10",
"9  c #1B1B1B",
"0  c gray11",
"q  c #1D1D1D",
"w  c #1E1E1E",
"e  c gray12",
"r  c #202020",
"t  c gray13",
"y  c #222222",
"u  c #232323",
"i  c gray14",
"p  c #252525",
"a  c gray15",
"s  c #272727",
"d  c #282828",
"f  c gray16",
"g  c #2A2A2A",
"h  c gray17",
"j  c #2C2C2C",
"k  c #2D2D2D",
"l  c gray18",
"z  c #2F2F2F",
"x  c gray19",
"c  c #313131",
"v  c #323232",
"b  c gray20",
"n  c #343434",
"m  c #353535",
"M  c gray21",
"N  c #373737",
"B  c gray22",
"V  c #393939",
"C  c #3A3A3A",
"Z  c gray23",
"A  c #3C3C3C",
"S  c gray24",
"D  c #3E3E3E",
"F  c #3F3F3F",
"G  c gray25",
"H  c #414141",
"J  c gray26",
"K  c #434343",
"L  c #444444",
"P  c gray27",
"I  c #464646",
"U  c gray28",
"Y  c #484848",
"T  c #494949",
"R  c gray29",
"E  c #4B4B4B",
"W  c #4C4C4C",
"Q  c gray30",
"!  c #4E4E4E",
"~  c gray31",
"^  c #505050",
"/  c #515151",
"(  c gray32",
")  c #535353",
"_  c gray33",
"`  c #555555",
"'  c #565656",
"]  c gray34",
"[  c #585858",
"{  c gray35",
"}  c #5A5A5A",
"|  c #5B5B5B",
" . c gray36",
".. c #5D5D5D",
"X. c gray37",
"o. c #5F5F5F",
"O. c #606060",
"+. c gray38",
"@. c #626262",
"#. c gray39",
"$. c #646464",
"%. c #656565",
"&. c gray40",
"*. c #676767",
"=. c #686868",
"-. c DimGray",
";. c #6A6A6A",
":. c gray42",
">. c #6C6C6C",
",. c #6D6D6D",
"<. c gray43",
"1. c #6F6F6F",
"2. c gray44",
"3. c #717171",
"4. c #727272",
"5. c gray45",
"6. c #747474",
"7. c gray46",
"8. c #767676",
"9. c #777777",
"0. c gray47",
"q. c #797979",
"w. c gray48",
"e. c #7B7B7B",
"r. c #7C7C7C",
"t. c gray49",
"y. c #7E7E7E",
"u. c gray50",
"i. c #808080",
"p. c #818181",
"a. c gray51",
"s. c #838383",
"d. c #848484",
"f. c gray52",
"g. c #868686",
"h. c gray53",
"j. c #888888",
"k. c #898989",
"l. c gray54",
"z. c #8B8B8B",
"x. c gray55",
"c. c #8D8D8D",
"v. c #8E8E8E",
"b. c gray56",
"n. c #909090",
"m. c gray57",
"M. c #929292",
"N. c #939393",
"B. c gray58",
"V. c #959595",
"C. c gray59",
"Z. c #979797",
"A. c #989898",
"S. c gray60",
"D. c #9A9A9A",
"F. c #9B9B9B",
"G. c gray61",
"H. c #9D9D9D",
"J. c gray62",
"K. c #9F9F9F",
"L. c #A0A0A0",
"P. c gray63",
"I. c #A2A2A2",
"U. c gray64",
"Y. c #A4A4A4",
"T. c #A5A5A5",
"R. c gray65",
"E. c #A7A7A7",
"W. c gray66",
"Q. c #A9A9A9",
"!. c #AAAAAA",
"~. c gray67",
"^. c #ACACAC",
"/. c gray68",
"(. c #AEAEAE",
"). c #AFAFAF",
"_. c gray69",
"`. c #B1B1B1",
"'. c #B2B2B2",
"]. c gray70",
"[. c #B4B4B4",
"{. c gray71",
"}. c #B6B6B6",
"|. c #B7B7B7",
" X c gray72",
".X c #B9B9B9",
"XX c gray73",
"oX c #BBBBBB",
"OX c #BCBCBC",
"+X c gray74",
"@X c gray",
"#X c gray75",
"$X c #C0C0C0",
"%X c #C1C1C1",
"&X c gray76",
"*X c #C3C3C3",
"=X c gray77",
"-X c #C5C5C5",
";X c #C6C6C6",
":X c gray78",
">X c #C8C8C8",
",X c gray79",
"<X c #CACACA",
"1X c #CBCBCB",
"2X c gray80",
"3X c #CDCDCD",
"4X c #CECECE",
"5X c gray81",
"6X c #D0D0D0",
"7X c gray82",
"8X c #D2D2D2",
"9X c LightGray",
"0X c gray83",
"qX c #D5D5D5",
"wX c gray84",
"eX c #D7D7D7",
"rX c #D8D8D8",
"tX c gray85",
"yX c #DADADA",
"uX c gray86",
"iX c gainsboro",
"pX c #DDDDDD",
"aX c gray87",
"sX c #DFDFDF",
"dX c gray88",
"fX c #E1E1E1",
"gX c #E2E2E2",
"hX c gray89",
"jX c #E4E4E4",
"kX c gray90",
"lX c #E6E6E6",
"zX c #E7E7E7",
"xX c gray91",
"cX c #E9E9E9",
"vX c #EAEAEA",
"bX c gray92",
"nX c #ECECEC",
"mX c gray93",
"MX c #EEEEEE",
"NX c #EFEFEF",
"BX c gray94",
"VX c #F1F1F1",
"CX c gray95",
"ZX c #F3F3F3",
"AX c #F4F4F4",
"SX c gray96",
"DX c #F6F6F6",
"FX c gray97",
"GX c #F8F8F8",
"HX c #F9F9F9",
"JX c gray98",
"KX c #FBFBFB",
"LX c gray99",
"PX c #FDFDFD",
"IX c #FEFEFE",
"UX c white",
/* pixels */
"PXPXPXPXPXPXPXPXUXUXIXPXPXPXIXIXLXUXIXSXGXPXJXFXUXFXSXSXFXUXUXGXUXDXBX2XF.v.0.K B c d 8 = ; f Y #.1.A.#XeXCXDXHXKXLXPXIXIXIXPXPX",
"PXPXPXPXPXPXPXPXUXIXIXPXPXIXIXIXJXDXUXUXDXKXUXKXZXGXUXUXHXpX$XT.+.z 7 3 @ O +         $ & @ O #   .   . r f 5.UXKXLXPXIXIXIXPXPX",
"PXPXPXPXPXPXPXPXPXPXPXPXIXIXIXIXUXUXVXHXUXCXkXUXUXmX:Xv.K > o o X         O > o * o         . X O $ = * X o ;.DXKXLXPXIXIXIXPXPX",
"PXPXPXPXPXPXPXPXLXLXPXIXIXIXIXIXAXCXUXLXVXUXUX4XU.] 1     $ & .   @ 2 :   + %     O = ; * $ + o     X     % k.UXKXLXPXIXIXIXPXPX",
"PXPXPXPXPXPXPXPXKXLXPXIXIXPXLXLXKXUXUXLXUX%X) 3 &   . - #   . + 2             o   o         O O   $   . 8   &.UXKXLXPXIXIXIXPXPX",
"PXPXPXPXPXPXPXPXLXPXIXIXIXLXKXJXSXMXDX3Xo.:     @     @     + % . < l ^ <.d.C.Y.^.{.|.).P.d.( a 1 %     % + z.PXKXLXPXIXIXIXPXPX",
"PXPXPXPXPXPXPXPXPXPXUXUXIXLXHXFXUXpX2.#   % #     o * #   0 ) 0._.hXUXJXHXUXUXDXJXUXUXPXUXUXUXxX>Xc.&.l     ~.HXKXLXPXIXIXIXPXPX",
"PXPXPXPXPXPXPXPXPXIXUXUXIXKXGXDX3.e   + 3 @ . * o - v ;.Q.kXUXUXIXUXIXDXFXSXAXKXDXIXGXlXjXSXUXUXUXPXUXhXn.i A.UXKXLXPXIXIXIXPXPX",
"HXHXUXUXHXPXUXUXLXUXLXPXUXUX].M   $   X o &   3 ! 9XVXUXUXUXZXAXLXCXLXLXUXUXFXUXUXCXUX} 3 K 7.h.gXUXAXIXUXyXsXUXJXAXUXJXLXUXSXJX",
"UXSXDXUXUXIXSXAXIXLXCXZXJXM.& @ #   # ;   M N.sXUXIXLXUXVXUXHXUXJXUXFXNX.X<XGXMXZXHXPX@.o   %   - :.|.bXUXUXUXUXUXAXNXUXJXDXUXJX",
"PXIXKXKXUXJXGXUXUXSXUXFX&.  1   +     V J.KXUXZXVXCXHXUXAXKXCXDXBXUX1.> 4 O 5.UXUXUXFX' X   @   $ +   K 9XUXSXAXNXUXLXHXPXJXLXLX",
"HXUXIXVXGXUXLXPXmXUXnXE   * X     j H.UXLXMXUXIXAXUXCXZXUXUXLXUXUX/.# >     @ B jXKXUXo.& 3     # o     : >.yXUXAXDXUXFXJXUXFXPX",
"PXLXFXGXUXUXGXNXUX0Xb   ,     , *.bXUXbXUXUXIXSXJXuX4X8XCXHXMXLXUXF   O 8 # , % K.GXFX[     #     o o ; -   N -XUXDXVXUXGXHXUXKX",
"UXCXKXUXPXSXUXUXpXR     = & V :XUXHXNXPXUXvXUXSX;.  O   G zXUXKX/.. % 4.UXU.o    .UXUX1XV.@.{ + &   . +     : 3 A.UXPXFXUXNXUXKX",
"UXAXUXUXBXDXUXnXH   % 8   O.UXUXAXUXAXAXUXGXcXZ.  v F.U   :.UXUXy.& z UXFXzX6 ; 4 1XAXFXUXIXUX2Xp.Y 6   , 4   . 2 %XIXDXUXLXGXKX",
"UXDXUXJXSXUXnXr.O >   4 [.UXCXKXFXZXLXSXSXUXkX1 . !.GXU.* 7 VXUX] o 6.UXNXUXp.    T.UXAXVXUXMXUXHXUXzX*.    @ * @ : 8XUXkXUXUXHX",
"KXIXJXJXUXUXU.  = X 1 #XJXUXUX_.P g t $.UXUX:X  $ dXUXmXl # 9XUXF   oXPXFXUX5X  X a.JXHXLXGXHXKXHXnXUXUX).U ;   *   W zXPXPXDXLX",
"UXIXUXUXDXzX9 # * . OXUXUXA.r :     . 1 NXUXP.7   5XZXlX.   dXKXh $ L.UXFXUXyX=   2.UXUXUXLXUXUXUXUXPXDXPXAXV.1   1   _ UXUXLXAX",
"BXJXDXUXUXw.  .   #XUXvX(   O   $   + P CXUXj.  $ ;.UXJ.  c UXNXD . L.JXUXUXzX> @ $.DXNXUXIXHXAXNXLXUXDXUXUXDX'.t   o % D.KXnXUX",
"UXIXIXUX:X& :   H.UXlX4.  :   O +     T.DXUX[.r   C 6.e % F.bXPXC   6.UXZXSXeX    +.UXJXPXFXUXUXUXUXUXUXFXAXPXUX~.& % o z JXvXUX",
"UXnXUXHXH +   ' UXDXKX9 O % : t   # w 5XFXUXZX=X- @   *   0.HXGXv $ h UXIXDX!.+   %.UXHXUXKXDXDXJXIXUXUXUXLXDXDXLXC.O   > ).UXBX",
"HXNXUX#XO - i pXJXHX*X& ' l.UX}.+ o f.AXPXUXUX+X    F G :   -.CX5.  < y.UXDX' & O g.CXNXKXUXUXIXFXPXHXDXIXPXJXUXPXCXX.    F UXUX",
"UXUXNXO.+ . k.UXAXUXUXBXUXUXgX}   p 5XUXFXUXZXS & x hXSX~   1 BX<X: # . C.g.*   a ,XUXUXGXJXHXPXUXUXDXSXUXUXGXUXUXVX-X2   3 iXHX",
"SXSX7X2   i dXUXUXLXnXUXMXGXJ.    K.KXPXZXIXuX&   *.UXJX:X%   >XPX0.  1 .   % O j.UXJXFXUXSXL.) l.rXUXPXFXGXGXUXSXUXUXA =   J.UX",
"BXUXs.o   v.UXJXUXSXUXDXKXFXr O i MXUXDXHXUX^.*   s.UXFXmX+   '.UXlX! <     % h.UXkXUXVXUXVXd o   E.GXCXUXUXKXKXAXPXUX=X&   | PX",
"LXKXK $ 8 8XUXJXUXVXPXnXUXI.&   `.KXBXUXFXUXG..   :.UXmX).7   F.IXUXmXN.s.D.T.UXKXUXPXUXUXlX]   O R.PXUXzX:XpXIXUXAXUXcXx   C KX",
"UXgX: o } UXUXKXSXBXUXUXfXc   J PXUXcXxXUXNXx.  . & yXUX$.  m uXIXGXFXUXUXPXUXzXyXUXBXmXAXUXH +   yXHXrXc + 2 y.FXBXUXUX'   t GX",
"UX#X#   I.UXIXPXUXUXGXLX$.  3 [.GX XU z IXUX}.= * @ 1.m.  # {.UXAXUXhXUXSXAXDXV h ;XUXUXPXFXP + X wXUX:.    >   Y.HXIXFX<.X w BX",
"IXP.$ O eXDXJXUXLXJXAX,Xy 5 / OX7 <   c UXFXUXI.  &     l F.UXUXUXZXUXUXLXUXOX  o ) UXvXJXUX%.  4 wXaX7   c.k.  ..UXGXSXd.  8 kX",
"UXx.  u CXUXHXUXGXUXUXq.    #   2   $ m.DXkXUXVXoXB.v.b.lXUXZXDXPXSXFXUXUXMXUXz.A zXLXPX9X=.$ ;   UXk.  9 8XW   :.UXDXUXv.  3 hX",
"UXw.  D UXUXKXUXKXUXaXj   + 3 .     =.mXUXUXUXPXUXVXUXSXPXUXUXUXUXNXUX5._ UXdXfXbXUXUX).    o $ X ZXQ   z.V.* 8 OXPXHXUX0.  y VX",
"UX>.& U UXVXIXPXUXCXb.  =     o > #.AXUXUXLXnXLXNXUXzXHXUXBXJXJXSXZXW =   <X:.  u '.UXm % p m   p ,X7 - P % 3 /.UXSXPXGX` % C UX",
"PX8.  A UXNXUXGXUXPXV.  1 9 @.[.eXCXUXGXcXqXFXUXJXKXUXbXPXUXcXUXKXU   ;   oX$.X o >X@X    T.;.. k %X* O $ %.bXz.N.zXUXKXJ O ..UX",
"PXs.  A UXUXIXKXMXUXUX9XlXfXCXUXBXUXGXkX+.: V.lXH.J.9XUXzXmXUXMXF.  >   m JX1.  & =Xf.  < hX5.@ l 4X6   C.KXb.%   tXMXgXi   Z.UX",
"LXM.  j UXUXDXIXKXGXUXUXFXPXUXGXUXUXKXAXt   o.hX  $ ` -Xb Z F.UXK   + ^ vXUX,.  < NXJ   j AX<.  y $Xv   v.'.X   n BXGX'.@ & rXHX",
"JXU.% : zXFXAXUXUXKXFXUXZXUXUXPXUXDXJXJXwXx.bXrX<   V  .O   1 FXt - 2 mXPXPXn.  & mXe . X.UX! @ i UXe.: = X   f gXUXUX2.  M HXKX",
"IXOX@   (.UXGXUXSXHXVXUXUXUXSXIXUXSXUX2Xi._.E.bX=   7   5 @ 1 PXx.  3 p.PXBXc.+ e wXs   8.,Xo o   0XUXt.  # k 5XUXIX9Xf   a.PXUX",
"UXpX-   +.UXLXUXUXUXHXUXIXUXBXUXCXUXUXv.    R uX6 > @ Z j   , vXPX8.X   s.UX6.= w nXf   H j +   = xXVXUXkX(.pXUXMXUX7.  g yXJXJX",
"IXGXL   e gXPXKXZXJXFXUXIXUXDXLXDXDXKX{.  4 G zXX     2Xd.< $ '.UXDXP.    |.2X    ZXW   # = w.;   AXKXFXUXCXUXkXUXiXa   i.UXJXNX",
"SXUXg.    U.LXDXUXHXPXUXSXJXUXDXUXFXLXY.    9.AX< X g NX[.  . x.IXSXfXj   $.oX% & zX~.    a.<X  O dXUXCXPXHXLXHXUX@.. r =XUXLXPX",
"FXUXzX9   b lXLXJXHXUXUXFXHXPXGXUXFXUX`.O   | IX; X ] JX<X@ O 8.UXHXx.    -.:X  * NXIXQ.].HXjXm 3 jXSXUXGXIXKXUX(.8   o.PXHXLXUX",
"UXFXUXX.>   4.UXLXUXHXDXUXUXKXPXGXGXUX@X    O.UX4 X ,.UXmXu   H SX6XX   @ C.lXI ( kXUXHXMXZXUXGXnXAXUXmXUXAXKXgXy   4 xXHXUXUXCX",
"UXVXLXqX1   > N.PXFXKXIXSXSXLXLXUXDXSXoX  , 8.UXD   %.CXUXI   t 3Xh +   | UXKXUXmXUXKXPXUXDXAXFXKXKXUXIXmXUXZXH X * U.UXBXKXJXUX",
"UXmXUXDXi.  + 7 3XvXUXLXNXUXUXVXLXLXUX<X    -.HXc   4.UXUX$.  c (.+ o b 8XUXJXUXIXPXFXZXUXUXLXUXPXCXUXZXKXBXT     [ UXnXUXPXSXUX",
"UXUXJXHXVXD   O s ].HXNXLXUXSXUXGXFXUX7X+ o 0.IXM * &.ZXUXH.    _.J.;.9XUXHXUXMXUXPXUXUXUXSXvXUXUXMXAXUX2Xz   ; F iXVXLXUXIXUXGX",
"KXUXVXUXJX=Xa     = c.HXSXJXUXDXUXDXGX-X,   e.UXCX>X4XUXUXkXW ; Y.jXZXUXCXGXJXUXJXNXCXSXIXUXIXLXcXUXUXq.  & . c sXUXSXUXVXHXUXJX",
"IXnXUXAXPXDXR.$ ; O X %.ZXUXnXUXJXPXUXiXc   ,.HXFXJXUXUXVXUXgXgXdXUXUXHXUXGXUXVXDXUXUXIXZXPXUXFXUX,Xn 7 +   a &XUXhXUXGXDXUXFXFX",
"HXUXDXUXJXDXHXN.  O + o v Q.IXUXPXzXUXUX X9.[.LXUXDXKXHXPXUXLXUXUXBXUXKXUXUXBXUXIXJXZXUXIXGXUXNX0.  o $   z 0XUXPXKXUXIXKXIXUXUX",
"PXPXPXPXPXPXPXPXF.q   *   & 5.zXKXPXKXJXIXUXUXKXJXGXHXPXLXHXHXPXUXUXJXJXPXIXPXLXKXIXGXSXUXMXv.u X >   o O.uXUXLXPXPXPXPXPXPXPXPX",
"PXPXPXPXPXPXPXPXUX*Xa   w @   e 0.#XFXHXBXJXUXSXUXUXUXJXFXGXIXUXvXGXUXKXAXDXJXKXSXUXFX%X#.1   @     m R.UXUXSXAXPXPXPXPXPXPXPXPX",
"PXPXPXPXPXPXPXPXUXDXgX(   - q       t y.8XSXJXPXmXHXUXIXPXIXJXZXUXUXHXBXPXUXLXaXZ.&.s     X X   2 x.ZXUXKXFXIXUXPXPXPXPXPXPXPXPX",
"PXPXPXPXPXPXPXPXLXFXBXPXD.;   o - &       a %.N.Q.@X9XfXZXUXUXSXzXFXmX#Xv.$.l   >     - O   a 7.7XJXUXZXCXUXUXFXPXPXPXPXPXPXPXPX",
"PXPXPXPXPXPXPXPXGXUXUXZXUX8XU 8 X X O $ * #     X * , 6 k L I C 0 d r +   O ; * # #     y e.9XUXUXUXPXLXUXGXFXUXPXPXPXPXPXPXPXPX",
"PXPXPXPXPXPXPXPXUXPXBXUXKXLXUX;X_ t   . @   X 5 # +     + = @   o o     O @       , .. XVXPXIXUXDXIXJXFXUXUXUXFXPXPXPXPXPXPXPXPX",
"PXPXPXPXPXPXPXPXUXJXUXFXFXIXAXUXUXiXj.M 1 2 *   @ O o O # # O       o $ o o q A E.0XSXZXVXLXIXZXPXJXGXUXUXZXZXUXPXPXPXPXPXPXPXPX",
"PXPXPXPXPXPXPXPXNXUXIXLXPXPXLXZXDXPXUXPXaX[.Z.c.m g q < & # : 7 7 & 7 ! p.T.5XFXIXUXIXLXLXIXPXKXFXUXKXDXUXUXPXJXPXPXPXPXPXPXPXPX",
"PXPXPXPXPXPXPXPXPXPXPXPXPXPXPXPXLXKXJXKXPXUXUXUXPXUXMXwX>X=X6XlX2X9XSXUXPXUXIXUXHXJXKXLXPXPXPXPXPXPXPXPXPXPXPXPXPXPXPXPXPXPXPXPX"
};
